<?xml version="1.0" encoding="UTF-8"?>
<svg version="1.1" xmlns="http://www.w3.org/2000/svg" width="38" height="35">
<path d="M0 0 C5.33994301 4.40483778 7.86612063 11.36147548 9 18 C9.2101364 21.6843916 9.18912588 25.31554759 9 29 C-2.47926803 35.60057912 -2.47926803 35.60057912 -7.3125 35 C-9.69330174 34.35435885 -12.06889663 33.68904825 -14.4375 33 C-18.61720463 31.82674958 -22.68689122 31.3716511 -27 31 C-26.31911019 28.08014819 -25.41898766 25.64877696 -24 23 C-25.65 22.67 -27.3 22.34 -29 22 C-29 21.01 -29 20.02 -29 19 C-27.03814584 17.28859531 -25.03697617 15.62126675 -23 14 C-22.67 13.34 -22.34 12.68 -22 12 C-24.475 11.01 -24.475 11.01 -27 10 C-27 9.34 -27 8.68 -27 8 C-23.44237066 6.65341021 -19.87818348 5.3251002 -16.3125 4 C-15.30509766 3.6184375 -14.29769531 3.236875 -13.25976562 2.84375 C-11.79506836 2.30234375 -11.79506836 2.30234375 -10.30078125 1.75 C-9.40528564 1.41484375 -8.50979004 1.0796875 -7.5871582 0.734375 C-4.89677183 -0.02930172 -2.78092845 -0.24057404 0 0 Z M-9.1875 8 C-10.27417969 8.37125 -11.36085938 8.7425 -12.48046875 9.125 C-13.72763672 9.558125 -13.72763672 9.558125 -15 10 C-15 13.52032428 -14.29648649 14.4385343 -12 17 C-11.34 17 -10.68 17 -10 17 C-9.731875 17.70125 -9.46375 18.4025 -9.1875 19.125 C-7.9318551 22.1649824 -6.49764877 25.0727774 -5 28 C-1.20696275 26.99806563 1.71536341 26.18975773 5 24 C4.56699236 17.18012971 3.09212176 12.08356979 0 6 C-3.4682737 6 -5.91266487 6.87317501 -9.1875 8 Z M-20 16 C-21.70532323 17.94009522 -21.70532323 17.94009522 -23 20 C-22.45730469 20.25394531 -21.91460937 20.50789063 -21.35546875 20.76953125 C-20.64003906 21.11371094 -19.92460937 21.45789063 -19.1875 21.8125 C-18.47980469 22.14894531 -17.77210937 22.48539063 -17.04296875 22.83203125 C-14.98743373 24.00718416 -13.6610375 25.3389625 -12 27 C-11.34 27 -10.68 27 -10 27 C-11.49102561 22.39137539 -13.69454418 19.46669756 -17 16 C-17.99 16 -18.98 16 -20 16 Z M-21 25 C-21.33 25.99 -21.66 26.98 -22 28 C-17.545 28.99 -17.545 28.99 -13 30 C-15.52788007 27.20127563 -17.20411134 25.54226981 -21 25 Z " fill="#8C1CA2" transform="translate(29,0)"/>
</svg>
