<?xml version="1.0" encoding="UTF-8"?>
<svg id="Layer_2" data-name="Layer 2" xmlns="http://www.w3.org/2000/svg" viewBox="0 0 279.4 73.44">
  <defs>
    <style>
      .cls-1 {
        fill: #680488;
      }
    </style>
  </defs>
  <g id="Layer_1-2" data-name="Layer 1">
    <g>
      <g>
        <path class="cls-1" d="M100.95,27.66c-2.54-1.99-6.14-2.98-10.79-2.98-3.31,0-6.08,.26-8.33,.79,.18,.41,.26,1.01,.26,1.8,0,1.61-.76,5.75-2.28,12.42-1.52,6.67-2.28,10.4-2.28,11.19,0,.61,.25,1.1,.75,1.47,.5,.37,1.42,.64,2.76,.83,1.34,.19,3.22,.29,5.61,.29,5.12,0,9.42-1.67,12.9-5,3.48-3.33,5.22-7.47,5.22-12.42,0-3.6-1.27-6.39-3.82-8.38Zm-5.77,18.45c-2.21,2.56-4.91,3.84-8.09,3.84-2.05,0-3.17-.22-3.38-.66,.12-1.02,.87-4.6,2.26-10.73,1.39-6.13,2.16-9.61,2.3-10.46h1.62c2.72,0,4.83,.65,6.34,1.95,1.51,1.3,2.26,3.27,2.26,5.9,0,4.21-1.1,7.6-3.31,10.16Z"/>
        <path class="cls-1" d="M123.49,31.61c-1.08-.76-2.53-1.14-4.34-1.14-3.45,0-6.51,1.42-9.17,4.26-2.66,2.84-3.99,6.45-3.99,10.83,0,2.46,.69,4.39,2.08,5.79,1.39,1.4,3.31,2.11,5.77,2.11,1.32,0,2.73-.39,4.23-1.16,1.51-.77,2.9-1.92,4.19-3.44,.56-.67,.83-1.37,.83-2.11,0-.38-.1-.73-.31-1.05-3.13,2.54-5.51,3.82-7.15,3.82-1.2,0-2.12-.37-2.76-1.12-.64-.75-.96-1.79-.96-3.14,0-.55,.09-1.36,.26-2.41,3.95-.18,7.09-.92,9.43-2.24,2.34-1.32,3.51-3.22,3.51-5.7,0-1.43-.54-2.53-1.62-3.29Zm-5.35,7.46c-1.29,1.05-3.13,1.61-5.53,1.67,.64-2.54,1.5-4.52,2.57-5.92,1.07-1.4,2.13-2.11,3.18-2.11,1.14,0,1.71,.67,1.71,2.02,0,1.84-.64,3.29-1.93,4.34Z"/>
        <path class="cls-1" d="M150.87,28.32c-.97-.96-1.97-1.45-3.03-1.45s-2.01,.57-2.96,1.71c-.95,1.14-2.11,3.16-3.47,6.05-1.36,2.89-3.3,7.43-5.81,13.6-.03-.2-.1-1.35-.2-3.44-.1-2.09-.23-4.2-.39-6.34-.16-2.13-.33-3.73-.5-4.78-.2-1.05-.53-1.79-.99-2.22-.45-.42-1.1-.64-1.95-.64-1.4,0-2.82,.53-4.25,1.58,.67,.41,1.21,1.84,1.62,4.3,.41,2.46,.85,7.08,1.32,13.86,.12,1.93,1.18,2.89,3.2,2.89,.82,0,1.58-.17,2.28-.53,.53-.96,1.54-2.99,3.05-6.08,1.51-3.08,2.87-5.82,4.1-8.2,1.23-2.38,2.6-4.65,4.12-6.8,1.52-2.15,2.81-3.33,3.86-3.53Z"/>
        <path class="cls-1" d="M163.5,31.61c-1.08-.76-2.53-1.14-4.34-1.14-3.45,0-6.51,1.42-9.17,4.26-2.66,2.84-3.99,6.45-3.99,10.83,0,2.46,.69,4.39,2.08,5.79,1.39,1.4,3.31,2.11,5.77,2.11,1.32,0,2.73-.39,4.23-1.16,1.51-.77,2.9-1.92,4.19-3.44,.56-.67,.83-1.37,.83-2.11,0-.38-.1-.73-.31-1.05-3.13,2.54-5.51,3.82-7.15,3.82-1.2,0-2.12-.37-2.76-1.12-.64-.75-.96-1.79-.96-3.14,0-.55,.09-1.36,.26-2.41,3.95-.18,7.09-.92,9.43-2.24,2.34-1.32,3.51-3.22,3.51-5.7,0-1.43-.54-2.53-1.62-3.29Zm-5.35,7.46c-1.29,1.05-3.13,1.61-5.53,1.67,.64-2.54,1.5-4.52,2.57-5.92,1.07-1.4,2.13-2.11,3.18-2.11,1.14,0,1.71,.67,1.71,2.02,0,1.84-.64,3.29-1.93,4.34Z"/>
        <path class="cls-1" d="M177.84,22.53c0-1.55-.82-2.33-2.46-2.33-1.32,0-2.69,.39-4.12,1.18,.32,.47,.48,1.1,.48,1.89,0,1.99-.87,6.77-2.61,14.34-1.74,7.58-2.61,11.89-2.61,12.94,0,1.93,1.02,2.89,3.07,2.89,1.35,0,2.79-.66,4.34-1.97-.91-.53-1.36-1.26-1.36-2.19,0-1.37,.88-5.88,2.63-13.53,1.75-7.65,2.63-12.06,2.63-13.23Z"/>
        <path class="cls-1" d="M196.44,32.53c-1.4-1.38-3.35-2.06-5.83-2.06-3.63,0-6.74,1.49-9.34,4.47-2.6,2.98-3.9,6.57-3.9,10.75,0,2.43,.69,4.33,2.08,5.7,1.39,1.38,3.33,2.06,5.81,2.06,3.63,0,6.75-1.5,9.37-4.5,2.62-3,3.93-6.59,3.93-10.77,0-2.4-.7-4.28-2.11-5.66Zm-4.67,10.81c-.57,2.06-1.38,3.82-2.41,5.29-1.04,1.46-2.16,2.19-3.36,2.19-1.81,0-2.72-1.42-2.72-4.25,0-1.96,.28-3.97,.83-6.03,.56-2.06,1.35-3.82,2.39-5.29,1.04-1.46,2.16-2.19,3.36-2.19,1.84,0,2.76,1.42,2.76,4.25,0,1.96-.29,3.97-.86,6.03Z"/>
        <path class="cls-1" d="M218.38,30.64c-3.13,0-6.74,3.38-10.83,10.13,1.43-4.47,2.15-7.44,2.15-8.91,0-1.58-.82-2.37-2.46-2.37-1.35,0-2.68,.37-3.99,1.1,.35,.44,.53,1.07,.53,1.89,0,1.64-.95,6.59-2.85,14.87-1.9,8.28-2.85,12.91-2.85,13.91,0,1.81,1.04,2.72,3.11,2.72,1.08,0,2.31-.47,3.68-1.4-.47-.5-.7-1.27-.7-2.33,0-1.55,.45-4.37,1.36-8.47,1.64,1.11,3.11,1.67,4.43,1.67,2.11,0,4.13-.86,6.08-2.57,1.94-1.71,3.49-3.92,4.65-6.62,1.15-2.71,1.73-5.45,1.73-8.23,0-1.7-.35-3.02-1.05-3.97-.7-.95-1.7-1.43-2.98-1.43Zm-3.09,13.07c-.86,2.19-1.89,3.96-3.09,5.31-1.2,1.35-2.31,2.02-3.33,2.02-.53,0-1.13-.27-1.82-.81-.69-.54-1.03-1.03-1.03-1.47,0-.91,.51-2.44,1.54-4.61,1.02-2.16,2.28-4.2,3.77-6.12,1.49-1.92,2.76-2.87,3.82-2.87,.96,0,1.45,.69,1.45,2.06,0,2.13-.43,4.3-1.29,6.49Z"/>
        <path class="cls-1" d="M241.19,31.61c-1.08-.76-2.53-1.14-4.34-1.14-3.45,0-6.51,1.42-9.17,4.26-2.66,2.84-3.99,6.45-3.99,10.83,0,2.46,.69,4.39,2.08,5.79,1.39,1.4,3.31,2.11,5.77,2.11,1.32,0,2.73-.39,4.23-1.16,1.51-.77,2.9-1.92,4.19-3.44,.56-.67,.83-1.37,.83-2.11,0-.38-.1-.73-.31-1.05-3.13,2.54-5.51,3.82-7.15,3.82-1.2,0-2.12-.37-2.76-1.12-.64-.75-.96-1.79-.96-3.14,0-.55,.09-1.36,.26-2.41,3.95-.18,7.09-.92,9.43-2.24,2.34-1.32,3.51-3.22,3.51-5.7,0-1.43-.54-2.53-1.62-3.29Zm-5.35,7.46c-1.29,1.05-3.13,1.61-5.53,1.67,.64-2.54,1.5-4.52,2.57-5.92,1.07-1.4,2.13-2.11,3.18-2.11,1.14,0,1.71,.67,1.71,2.02,0,1.84-.64,3.29-1.93,4.34Z"/>
        <path class="cls-1" d="M264,33.05c-.38-.21-.97-.69-1.78-1.45-.8-.76-1.4-1.14-1.78-1.14-2.4,0-5.6,4.12-9.61,12.37,1.7-5.03,2.54-8.38,2.54-10.05,0-1.55-.83-2.33-2.5-2.33-1.17,0-2.44,.32-3.82,.97,.26,.5,.4,1.16,.4,1.97,0,1.35-.58,4.53-1.73,9.54-1.16,5.02-1.73,7.73-1.73,8.14,0,1.52,1.05,2.28,3.16,2.28,.85,0,1.51-.13,1.97-.4,.61-2.6,1.35-5.03,2.22-7.28,.86-2.25,1.7-4.06,2.5-5.42,.8-1.36,1.54-2.43,2.19-3.22,.66-.79,1.18-1.21,1.56-1.27,.94,1.17,1.92,1.75,2.94,1.75,.2,0,.4-.05,.57-.15,.18-.1,.36-.29,.55-.55,.19-.26,.37-.54,.55-.83,.18-.29,.44-.73,.79-1.32s.69-1.13,1.01-1.62Z"/>
        <path class="cls-1" d="M271.13,34.06c.6-.47,1.43-.7,2.48-.7,1.49,0,3.2,.57,5.13,1.71,.44-.79,.66-1.48,.66-2.06,0-1.7-1.67-2.54-5-2.54-2.63,0-4.88,.76-6.73,2.28-1.86,1.52-2.79,3.31-2.79,5.35,0,1.11,.4,2.17,1.18,3.18s1.65,1.82,2.59,2.43c.94,.61,1.8,1.29,2.59,2.04s1.18,1.44,1.18,2.08c0,1.78-1.23,2.68-3.69,2.68-1.75,0-3.7-.69-5.83-2.06-.35,.94-.53,1.62-.53,2.06,0,1.96,1.81,2.94,5.44,2.94,2.81,0,5.18-.74,7.11-2.21s2.9-3.31,2.9-5.51c0-1.14-.39-2.22-1.18-3.25-.79-1.02-1.66-1.85-2.61-2.48-.95-.63-1.82-1.31-2.61-2.04-.79-.73-1.18-1.39-1.18-1.97,0-.82,.3-1.46,.9-1.93Z"/>
      </g>
      <g id="Group_13" data-name="Group 13">
        <path id="Path_14" data-name="Path 14" class="cls-1" d="M4.43,19.31c1.24-.52,2.35-1,3.47-1.47,3.02-1.27,6.05-2.55,9.07-3.82,3.33-1.4,6.66-2.8,9.99-4.21,2.32-.98,4.63-1.97,6.94-2.95,2.71-1.15,5.43-2.29,8.14-3.45,2.42-1.03,4.83-2.08,7.24-3.12,.85-.55,1.99-.3,2.54,.55,.02,.04,.05,.08,.07,.12,2.96,3.82,5.6,7.87,7.9,12.12,1.97,3.58,3.63,7.33,4.97,11.19,.84,2.46,1.53,4.96,2.2,7.47,.43,1.64,.72,3.33,1.04,5,.62,3.43,.97,6.89,1.07,10.38,.1,3.47,.01,6.94-.28,10.4-.02,.86-.51,1.63-1.27,2.02-1.64,.88-3.29,1.77-4.92,2.66-5.69,3.09-11.39,6.18-17.08,9.27-1.04,.57-2.07,1.15-3.12,1.71-.91,.49-1.13,.32-1.24-.7-.14-1.21-.37-2.42-.58-3.62-.22-1.25-.45-2.5-.71-3.74-2.17-9.9-6.56-19.18-12.83-27.14-3.48-4.33-7.46-8.25-11.84-11.67-3.25-2.49-6.68-4.73-10.27-6.7-.14-.08-.26-.16-.49-.3Zm15.07,3.98c.58,.5,1.05,.92,1.53,1.33,5.57,4.76,10.39,10.34,14.29,16.55,2.05,3.24,3.83,6.64,5.32,10.16,.68,1.62,1.27,3.28,1.86,4.93,.48,1.37,.89,2.78,1.34,4.16,.26,.79,.58,.93,1.34,.55,.66-.33,1.3-.7,1.95-1.04,4.05-2.17,8.1-4.35,12.16-6.52,1.3-.7,2.61-1.38,3.91-2.07,.65-.27,1.07-.91,1.06-1.62-.06-2.04-.11-4.08-.29-6.11-.15-1.78-.46-3.55-.72-5.31-.15-.98-.29-1.97-.52-2.94-.49-2.04-.98-4.1-1.59-6.11-.67-2.18-1.42-4.34-2.24-6.46-1.32-3.35-2.89-6.59-4.7-9.7-.51-.89-1.03-1.77-1.61-2.62-.31-.55-.99-.76-1.56-.49-.19,.06-.38,.12-.57,.2-4.43,1.88-8.87,3.75-13.3,5.63-5.51,2.33-11.03,4.64-16.55,6.96-.34,.15-.67,.31-1.11,.51h0ZM56.68,56.62c-1.8-.09-3.33,1.3-3.42,3.1,0,.09,0,.17,0,.26,.02,1.89,1.56,3.41,3.45,3.4,1.84-.02,3.33-1.48,3.39-3.31,.03-1.87-1.45-3.41-3.32-3.44-.04,0-.07,0-.11,0h0Z"/>
        <path id="Path_15" data-name="Path 15" class="cls-1" d="M38.8,70.22c-.08-.09-.15-.18-.22-.28-3.01-5.03-7.01-9.39-11.76-12.83-4.52-3.38-9.4-6.25-14.55-8.56-3.9-1.8-7.92-3.31-11.96-4.76-.09-.03-.18-.08-.31-.14,.07-.1,.15-.19,.23-.29l8.94-9.05c1.45-1.47,2.9-2.95,4.35-4.42,.7-.71,.85-.73,1.65-.15,.61,.43,1.2,.9,1.77,1.39,.42,.26,.55,.81,.29,1.23-.05,.08-.11,.15-.19,.21-.33,.41-.68,.79-1.05,1.15-2.32,2.22-4.65,4.43-6.97,6.64-.25,.24-.48,.5-.71,.76-.26,.3-.16,.55,.15,.7,.38,.18,.76,.34,1.16,.48,5.34,1.85,10.36,4.51,14.89,7.88,3.47,2.63,6.55,5.76,9.12,9.28,1.84,2.47,3.39,5.15,4.62,7.97,.24,.56,.45,1.13,.69,1.68,.16,.36,.11,.79-.13,1.1Z"/>
        <path id="Path_16" data-name="Path 16" class="cls-1" d="M37.06,71.22c-2.08-1.53-4.31-2.83-6.66-3.88-3.22-1.41-6.59-2.46-10.04-3.13-4.62-.85-9.3-1.41-13.99-1.68-.46-.03-.92-.08-1.44-.13,.16-.3,.29-.55,.42-.79,1.81-3.21,3.63-6.42,5.45-9.62,.06-.1,.11-.2,.18-.3,.36-.56,.7-.63,1.27-.28,.39,.24,.8,.45,1.21,.66,.27,.09,.41,.38,.32,.64,0,.02-.02,.05-.03,.07-.13,.29-.28,.57-.45,.83-1.11,1.76-2.22,3.52-3.33,5.28-.57,.9-.41,1.25,.67,1.37,2.92,.3,5.82,.76,8.69,1.39,4.44,.94,8.7,2.57,12.62,4.84,1.82,1.08,3.48,2.41,4.93,3.94,.19,.2,.39,.4,.19,.76Z"/>
      </g>
    </g>
  </g>
</svg>