<svg version="1.2" xmlns="http://www.w3.org/2000/svg" viewBox="0 0 571 98" width="571" height="98">
	<style>
		.s0 { fill: #7d00d6 } 
		.s1 { fill: #12d1fa } 
		.s2 { fill: #b0f5ff } 
	</style>
	<g>
		<path class="s0" d="m194.38 27.82v1.94c-2.76-1.78-6.04-2.81-9.58-2.81-9.76 0-17.67 7.86-17.67 17.57 0 9.7 7.91 17.56 17.67 17.56 3.54 0 6.82-1.03 9.58-2.8v1.94h8.22v-33.4h-8.22zm-9.58 26.17c-5.25 0-9.53-4.24-9.53-9.47 0-5.23 4.28-9.47 9.53-9.47 5.25 0 9.53 4.25 9.53 9.47 0 5.22-4.27 9.47-9.53 9.47z"/>
		<path class="s0" d="m116.33 53.22q-1.6 0.74-3.32 0.75-2.46 0.01-4.38-1.31c-1.33-0.84-2.35-2.03-3.1-3.44-0.75-1.45-1.15-2.99-1.15-4.66 0-1.67 0.4-3.25 1.15-4.7q1.11-2.17 3.1-3.47 1.92-1.33 4.38-1.33c1.1 0 2.21 0.22 3.27 0.75 1.06 0.48 1.99 1.19 2.74 2.07l7.43-3.96c-1.55-2.15-3.5-3.82-5.84-5.1q-3.5-1.9-7.61-1.89-3.5-0.01-6.54 1.36c-2.04 0.88-3.81 2.16-5.35 3.78-1.55 1.63-2.74 3.48-3.63 5.63-0.88 2.11-1.28 4.4-1.28 6.86q-0.01 4.81 2.25 8.84c1.51 2.63 3.54 4.79 6.06 6.38 2.57 1.57 5.4 2.32 8.5 2.32q4.1 0.01 7.6-1.89 3.52-1.9 5.84-5.06l-7.42-3.95c-0.76 0.83-1.65 1.53-2.7 2.01"/>
		<path class="s0" d="m160.37 33.49q-1.78-3.03-4.82-4.8c-1.99-1.19-4.25-1.76-6.68-1.76-1.81 0-3.54 0.31-5.13 1.01q-2.39 1.07-4.12 2.86l-0.04-11.43h-8.18l0.04 41.9h8.18v-19q-0.01-1.96 0.98-3.6c0.61-1.06 1.5-1.94 2.56-2.55 1.11-0.66 2.3-0.97 3.63-0.97q1.97-0.01 3.63 0.97c1.05 0.61 1.94 1.49 2.6 2.55 0.62 1.1 0.98 2.29 0.98 3.6v19h8.18v-21.15c0-2.41-0.58-4.66-1.81-6.63z"/>
		<path fill-rule="evenodd" class="s1" d="m277.76 19.36v8.35h-8.4v-8.35z"/>
		<path fill-rule="evenodd" class="s0" d="m277.69 32.03v29.24h-8.23v-29.24z"/>
		<path fill-rule="evenodd" class="s0" d="m290.89 19.37v41.9h-8.18v-41.9z"/>
		<path class="s0" d="m256.19 27.85v1.88c-2.75-1.75-6.02-2.78-9.54-2.78-9.76 0-17.67 7.86-17.67 17.57 0 9.7 7.91 17.56 17.67 17.56 3.51 0 6.79-1.02 9.54-2.78v2.59q0 1.84-0.8 3.29c-0.58 0.97-1.32 1.81-2.3 2.47-0.93 0.7-1.99 1.18-3.23 1.53-1.1 0.36-2.34 0.54-3.49 0.58h-12.91v8.22h12.91q3.5-0.07 6.68-1.14c2.17-0.79 4.16-1.85 5.88-3.3 1.64-1.41 3.01-3.12 4.03-5.1q1.46-2.91 1.46-6.55v-34.04h-8.22zm-9.54 26.14c-5.25 0-9.53-4.25-9.53-9.47 0-5.23 4.28-9.47 9.53-9.47 5.25 0 9.53 4.25 9.53 9.47 0 5.21-4.28 9.47-9.53 9.47z"/>
		<path class="s0" d="m207.6 61.25h8.18v-11.79l0.03-13.5h10.43l-0.08-8.13h-13.4c-2.88 0-5.21 2.32-5.21 5.18 0 0 0.04 28.24 0.05 28.24z"/>
		<path class="s0" d="m322.59 27.85h8.37v32.12c0 2.93-0.09 5.79-1.46 8.47-1.02 1.97-2.39 3.69-4.03 5.09-1.72 1.46-3.71 2.51-5.88 3.31-2.12 0.7-4.34 1.1-6.68 1.14h-12.91v-8.22h12.91c1.15-0.05 2.39-0.22 3.5-0.58 1.24-0.35 2.3-0.83 3.22-1.54 0.98-0.66 1.73-1.49 2.31-2.46 0.57-0.96 0.79-2.2 0.79-3.3v-4.66q-1.54 2.18-3.94 3.56c-1.59 0.88-3.4 1.32-5.48 1.32q-3.64 0-6.81-1.32c-2.08-0.92-3.94-2.24-5.58-3.82q-2.39-2.44-3.71-5.59c-1.9-4.53-1.37-9.75-1.37-14.54v-8.98h8.36v17.47c0 5.05 4.12 9.14 9.2 9.14 5.08 0 9.2-4.09 9.2-9.14v-17.47z"/>
		<g>
			<g id="Folder 4">
				<path class="s2" d="m76.76 3.11v36.92c0 3.39-2.28 6.39-5.57 7.29l-56.54 15.82v-40.98c0-3.39 2.29-6.39 5.57-7.29l52.61-14.76q0.41-0.11 0.84-0.11c1.48 0 3.09 1.19 3.09 3.11z"/>
				<path class="s1" d="m71.19 58.5c3.28-0.9 5.58-3.9 5.58-7.29v-36.92c0-1.92-1.62-3.11-3.1-3.11q-0.42 0-0.84 0.11l-52.6 14.76c-3.29 0.9-5.58 3.91-5.58 7.3v40.69l0.04-0.01c0 0 56.5-15.52 56.5-15.53z"/>
				<path class="s0" d="m67.08 59.63v5.4c0 5.67-3.8 10.66-9.27 12.17l-4.32 1.17v2.5c0 3.1-2.05 5.83-5.03 6.68l-35.9 9.8c-6.33 1.72-12.56-3.06-12.56-9.61v-41.68l14.65-3.96 24.64-6.65v6.27c0 5.68-3.79 10.66-9.27 12.16l-15.37 4.12v16.04l13.81-3.79 38.62-10.62z"/>
			</g>
		</g>
	</g>
	<g id="Folder 1">
		<g id="Folder 2">
			<path class="s1" d="m361.36 20.41q-0.96 0.86-0.96 2.99v0.03h4.34v4.61h-4.34v16.85h-5.46v-16.85h-2.75v-4.61h2.75v-0.5q0-3.84 2.19-5.91 2.18-2.07 6.48-2.07 0.74 0 1.13 0.04v4.72q-2.41-0.15-3.38 0.7"/>
			<path class="s1" d="m383.54 24.48q2.49 1.32 3.93 3.81 1.43 2.5 1.43 5.87 0 3.37-1.43 5.85-1.43 2.48-3.93 3.81-2.5 1.33-5.64 1.33-3.14 0-5.64-1.33-2.49-1.34-3.93-3.81-1.43-2.48-1.43-5.85 0-3.37 1.43-5.87 1.43-2.5 3.93-3.81 2.5-1.31 5.64-1.31 3.14 0 5.64 1.31zm-9.51 5.01q-1.59 1.61-1.59 4.67 0 3.06 1.59 4.67 1.58 1.6 3.87 1.6 2.29 0 3.87-1.6 1.59-1.61 1.59-4.67 0-3.06-1.59-4.67-1.58-1.6-3.87-1.6-2.28 0-3.87 1.6z"/>
			<path class="s1" d="m401.41 24.31q1.97-1.18 4.41-1.19v5.85h-1.58q-6.01 0-6 5.58v10.34h-5.47v-21.46h5.47v4.11q1.19-2.05 3.17-3.24"/>
		</g>
		<g id="Folder 3">
			<path class="s1" d="m367.15 59.27q1.92 1.28 2.77 3.45v-11.66h5.42v28.66h-5.42v-4.49q-0.85 2.17-2.77 3.47-1.91 1.29-4.63 1.29-2.71 0-4.87-1.31-2.18-1.32-3.39-3.82-1.22-2.49-1.22-5.86 0-3.38 1.22-5.87 1.21-2.5 3.39-3.81 2.16-1.32 4.87-1.32 2.72 0 4.63 1.28m-7.03 5.14q-1.55 1.67-1.54 4.57-0.01 2.91 1.54 4.55 1.55 1.65 4.11 1.65c1.7 0 3.01-0.57 4.08-1.69q1.61-1.68 1.61-4.51c0-1.89-0.54-3.43-1.61-4.55q-1.6-1.69-4.08-1.69c-1.65 0-3.07 0.56-4.11 1.67"/>
			<path class="s1" d="m400.28 70.04h-15.72q0.12 2.86 1.55 4.22 1.43 1.36 3.56 1.36 1.89 0 3.16-0.93 1.26-0.93 1.6-2.52h5.77q-0.42 2.25-1.81 4.03-1.4 1.78-3.59 2.79-2.18 1-4.86 1-3.13 0-5.57-1.33-2.44-1.34-3.8-3.81-1.35-2.48-1.35-5.85-0.01-3.37 1.35-5.87 1.36-2.5 3.8-3.81 2.44-1.32 5.57-1.32c2.1 0 3.97 0.45 5.56 1.32q2.38 1.31 3.68 3.62 1.3 2.31 1.3 5.25 0 0.81-0.19 1.86m-6.69-6.4q-1.49-1.36-3.66-1.36c-1.44 0-2.7 0.45-3.71 1.36q-1.51 1.35-1.67 3.99h10.42q0.12-2.64-1.38-3.99z"/>
			<path fill-rule="evenodd" class="s1" d="m413.68 74.26l5.42-15.99h5.81l-7.94 21.45h-6.66l-7.94-21.45h5.85l5.46 15.99z"/>
			<path class="s1" d="m447.91 70.04h-15.72q0.11 2.86 1.54 4.22 1.44 1.36 3.57 1.36 1.89 0 3.15-0.93 1.26-0.93 1.61-2.52h5.77q-0.43 2.25-1.82 4.03-1.4 1.78-3.58 2.79-2.19 1-4.86 1-3.14 0-5.58-1.33-2.44-1.34-3.8-3.81-1.35-2.48-1.35-5.85 0-3.37 1.35-5.87 1.36-2.5 3.8-3.81 2.44-1.32 5.58-1.32c2.09 0 3.96 0.45 5.55 1.32q2.38 1.31 3.68 3.62 1.3 2.31 1.3 5.25 0 0.81-0.19 1.86m-6.68-6.4q-1.49-1.36-3.66-1.36c-1.44 0-2.71 0.45-3.71 1.36q-1.52 1.35-1.67 3.99h10.41q0.12-2.64-1.37-3.99z"/>
			<path fill-rule="evenodd" class="s1" d="m457.44 51.07v28.65h-5.46v-28.65z"/>
			<path class="s1" d="m477.94 59.31q2.5 1.32 3.93 3.81 1.44 2.5 1.44 5.87 0 3.37-1.44 5.85-1.43 2.48-3.93 3.81-2.49 1.33-5.63 1.34-3.14-0.01-5.64-1.34-2.5-1.34-3.93-3.81-1.44-2.48-1.43-5.85-0.01-3.37 1.43-5.87 1.43-2.5 3.93-3.81 2.5-1.31 5.64-1.31 3.14 0 5.63 1.31zm-9.51 5.02q-1.58 1.6-1.58 4.66 0 3.06 1.58 4.67 1.59 1.6 3.88 1.6 2.28 0 3.87-1.6 1.59-1.61 1.59-4.67 0-3.06-1.59-4.66-1.59-1.61-3.87-1.61-2.29 0-3.88 1.61z"/>
			<path class="s1" d="m504.87 59.31q2.17 1.32 3.39 3.81 1.22 2.5 1.22 5.87-0.01 3.37-1.22 5.87-1.22 2.5-3.39 3.81-2.17 1.32-4.88 1.32-2.71-0.01-4.63-1.3-1.91-1.3-2.73-3.47v14.72h-5.46v-31.68h5.46v4.45q0.82-2.17 2.73-3.44 1.92-1.28 4.63-1.28 2.71 0 4.88 1.31m-10.67 5.14q-1.6 1.69-1.6 4.55c0 1.91 0.53 3.39 1.6 4.51q1.61 1.69 4.09 1.69c1.65 0 3.07-0.55 4.1-1.65q1.55-1.64 1.55-4.55 0-2.9-1.55-4.57-1.55-1.66-4.1-1.66c-1.71 0-3.02 0.56-4.09 1.68z"/>
			<path class="s1" d="m533.33 70.04h-15.72q0.12 2.86 1.55 4.22 1.43 1.36 3.56 1.36 1.89 0 3.16-0.93 1.26-0.93 1.6-2.52h5.77q-0.42 2.25-1.81 4.03-1.4 1.78-3.59 2.79-2.19 1-4.86 1-3.13 0-5.57-1.33-2.44-1.34-3.8-3.81-1.35-2.48-1.36-5.85 0-3.37 1.36-5.87 1.36-2.5 3.8-3.81 2.44-1.32 5.57-1.32c2.1 0 3.97 0.45 5.56 1.32q2.38 1.31 3.68 3.62 1.3 2.31 1.3 5.25 0 0.81-0.19 1.86m-6.69-6.4q-1.49-1.36-3.65-1.36c-1.45 0-2.71 0.45-3.72 1.36q-1.51 1.35-1.66 3.99h10.41q0.12-2.64-1.38-3.99z"/>
			<path class="s1" d="m546.04 59.14q1.97-1.18 4.41-1.19v5.85h-1.58q-6 0-6 5.58v10.34h-5.46v-21.46h5.46v4.11q1.2-2.05 3.17-3.24"/>
			<path class="s1" d="m567.14 59.97q2.36 1.98 2.94 5.27h-5.11q-0.31-1.55-1.39-2.48-1.09-0.93-2.83-0.93-1.39 0-2.17 0.66-0.77 0.66-0.77 1.78 0 0.89 0.62 1.43 0.62 0.54 1.54 0.85 0.93 0.31 2.68 0.74 2.44 0.54 3.97 1.14 1.53 0.6 2.63 1.9 1.11 1.29 1.1 3.5 0.01 2.75-2.15 4.45-2.15 1.71-5.79 1.71-4.18 0-6.7-1.88-2.51-1.88-3.06-5.37h5.23q0.2 1.59 1.4 2.5 1.2 0.91 3.13 0.91 1.4 0 2.14-0.68 0.73-0.67 0.73-1.76 0-0.93-0.64-1.51-0.63-0.58-1.58-0.89-0.95-0.31-2.7-0.74-2.4-0.54-3.89-1.1-1.49-0.56-2.55-1.8-1.07-1.24-1.07-3.41 0-2.79 2.13-4.53 2.13-1.75 5.89-1.75c2.5 0 4.69 0.66 6.27 1.98"/>
		</g>
	</g>
</svg>